# xmcd CD database file
# Copyright (C) 1997 Ti Kan
# 
# Track frame offsets:
#     150
#     22292
#     38502
#     50762
#     66472
#     79560
#     88802
#     103907
#     118130
#     129717
#     142917
#     158965
#     171602
#     190420
#     211432
#     225280
#     241800
#     253257
#     269550
#     285212
# 
# Disc length: 3963 seconds
# 
# Revision: 1
# Processed by: cddbd v1.4b41PL1 Copyright (c) Steve Scherf et al.
# Submitted via: DiscPlay 4.0.4
# 
DISCID=2e0f7914
DTITLE=Various Artist - Sizzling Country Dancers - The Classic Linedance Collection
DTITLE=Disk 2
DYEAR=1900
DGENRE=
TTITLE0=William Lee Golden - Love Is The Only Way Out
TTITLE1=Steve Wariner - The Domino Theory
TTITLE2=Mark Collie - The Heart Of The Matter
TTITLE3=Rodney Crowell - The Ballad Of Possum Potez
TTITLE4=Marty Brown - No Honky Tonkin Tonight
TTITLE5=Webb Pierce - Honky Tonk Song
TTITLE6=Mark Collie - Linda Lou
TTITLE7=Ed Bruce - Hundred Dollar Lady
TTITLE8=Marty Brown - Cherokee Boogie
TTITLE9=Loretta Lynn - Lullabies To A Memory
TTITLE10=George Strait - Drinking Champagne
TTITLE11=McBride and The Ride - Hangin' In And Hangin' On
TTITLE12=Marty Brown - I Don't Want To See You Again
TTITLE13=Conway Twitty - Red Neckin' Love Makin' Night
TTITLE14=Mark Chesnutt - Brother Jukebox
TTITLE15=John Schneider - Hollywood Heroes
TTITLE16=Gene Watson - You're Out Doing What I'm Doing Without
TTITLE17=Reba McEntire - Love Will Find It's Way To You
TTITLE18=Steve Wariner - Heart Trouble
TTITLE19=Gene Watson - Got No Reason For Goin' Home
EXTD=
EXTT0=
EXTT1=
EXTT2=
EXTT3=
EXTT4=
EXTT5=
EXTT6=
EXTT7=
EXTT8=
EXTT9=
EXTT10=
EXTT11=
EXTT12=
EXTT13=
EXTT14=
EXTT15=
EXTT16=
EXTT17=
EXTT18=
EXTT19=
PLAYORDER=
